<svg xmlns="http://www.w3.org/2000/svg" xmlns:xlink="http://www.w3.org/1999/xlink" viewBox="0 0 157.6 151.98"><defs><style>.cls-1,.cls-25,.cls-3{fill:none;}.cls-2{isolation:isolate;}.cls-3{stroke:#fff;stroke-width:4px;}.cls-25,.cls-3{stroke-miterlimit:10;}.cls-21,.cls-4,.cls-6{fill:#f1f2f2;}.cls-4{opacity:0.7;}.cls-5{clip-path:url(#clip-path);}.cls-6{mix-blend-mode:multiply;}.cls-7{opacity:0.5;}.cls-8{fill:url(#linear-gradient);}.cls-9{fill:url(#linear-gradient-2);}.cls-10{fill:url(#linear-gradient-3);}.cls-11{fill:url(#linear-gradient-4);}.cls-12{fill:#dcdae5;}.cls-13,.cls-17,.cls-18{opacity:0.6;}.cls-13{fill:url(#linear-gradient-5);}.cls-14{fill:#fde160;}.cls-15{fill:#d6bf5c;}.cls-16{fill:#afacbf;}.cls-17{fill:url(#linear-gradient-6);}.cls-18{fill:url(#linear-gradient-7);}.cls-19{opacity:0.3;fill:url(#linear-gradient-8);}.cls-20{fill:#fff;}.cls-22{fill:url(#linear-gradient-9);}.cls-23{fill:url(#linear-gradient-10);}.cls-24{fill:url(#linear-gradient-11);}.cls-25{stroke:#f1f2f2;stroke-width:3px;opacity:0.2;mix-blend-mode:lighten;}</style><clipPath id="clip-path" transform="translate(-313.99 -300.83)"><circle class="cls-1" cx="388.36" cy="385.48" r="60.5"/></clipPath><linearGradient id="linear-gradient" x1="355.26" y1="304.1" x2="361.79" y2="304.1" gradientUnits="userSpaceOnUse"><stop offset="0" stop-color="#f79852"/><stop offset="0.99" stop-color="#f27051"/></linearGradient><linearGradient id="linear-gradient-2" x1="424.92" y1="328.76" x2="431.45" y2="328.76" xlink:href="#linear-gradient"/><linearGradient id="linear-gradient-3" x1="465.06" y1="369.48" x2="471.59" y2="369.48" xlink:href="#linear-gradient"/><linearGradient id="linear-gradient-4" x1="313.99" y1="420.82" x2="327.05" y2="420.82" xlink:href="#linear-gradient"/><linearGradient id="linear-gradient-5" x1="362.78" y1="374.67" x2="371.07" y2="374.67" gradientUnits="userSpaceOnUse"><stop offset="0" stop-color="#bd82e0"/><stop offset="0.86" stop-color="#bd82e0"/><stop offset="1" stop-color="#bd82e0"/></linearGradient><linearGradient id="linear-gradient-6" x1="406.62" y1="374.67" x2="414.91" y2="374.67" xlink:href="#linear-gradient-5"/><linearGradient id="linear-gradient-7" x1="376.66" y1="354.64" x2="401.29" y2="354.64" xlink:href="#linear-gradient-5"/><linearGradient id="linear-gradient-8" x1="418.82" y1="354.64" x2="431.12" y2="354.64" gradientTransform="matrix(-1, 0, 0, 1, 807.71, 0)" xlink:href="#linear-gradient-5"/><linearGradient id="linear-gradient-9" x1="431.72" y1="398.9" x2="449.32" y2="398.9" xlink:href="#linear-gradient"/><linearGradient id="linear-gradient-10" x1="334.28" y1="376.82" x2="339.51" y2="376.82" xlink:href="#linear-gradient"/><linearGradient id="linear-gradient-11" x1="316.08" y1="354.82" x2="322.29" y2="354.82" xlink:href="#linear-gradient"/></defs><title>WelcomeEmailer</title><g class="cls-2"><g id="Layer_1" data-name="Layer 1"><line class="cls-3" x1="80.07" y1="64.72" x2="70.41" y2="56.39"/><path class="cls-4" d="M448.48,385.48a60.5,60.5,0,1,1-66.25-60.23c1.89-.18,6.62-13.39,6.62-13.39s3.82,13.26,6.11,13.52A60.51,60.51,0,0,1,448.48,385.48Z" transform="translate(-313.99 -300.83)"/><g class="cls-5"><path class="cls-6" d="M430.24,419.2a8.16,8.16,0,0,0-8.13-7.47h0a8.17,8.17,0,0,0-9.27-3.29l-1.27-9.63-1.78.18-1.37,12.82a8.13,8.13,0,0,0-.77,1.52,8.15,8.15,0,0,0-2.94,1.77,10,10,0,0,0-10.61,5.52,8.13,8.13,0,0,0-2.54-1.3l-1.58-12-3.21.32-1.31,12.26a8.19,8.19,0,0,0-3.84,4.22,10.23,10.23,0,0,0-3-2.53,7.06,7.06,0,0,0-5.79-11.11H372.7a8.18,8.18,0,0,0-4.34-4.37l-1-7.64-1.67.17L365,405.49a8.15,8.15,0,0,0-6.34,3.32,7.05,7.05,0,0,0-9.28,2.45A8.94,8.94,0,1,0,342.61,427a10.1,10.1,0,0,0,11.58,11.32,10.16,10.16,0,0,0,9.17,5.79c1.88,0,.82,2.22,2.33,1.33,1.09,4.44,7.89,5,12.67,5a10.12,10.12,0,0,0,4.06-.85,8.13,8.13,0,0,0,3.94,1c3.73,0,6.52,4.24,7.5.83,1.83,2.18,4.93-3.17,8-3.17,5.06,0,12.33.37,13-4.5,0.23,0,6.6,1.17,6.83,1.17,2.78,0,0-2.55,1.5-4.67,1.63,1.11-.45-2.33,1.67-2.33A10.16,10.16,0,0,0,430.24,419.2Z" transform="translate(-313.99 -300.83)"/></g><g class="cls-7"><path class="cls-8" d="M361.79,304.1c-2.92.19-3.08,0.34-3.27,3.27-0.19-2.92-.34-3.08-3.27-3.27,2.92-.19,3.08-0.34,3.27-3.27C358.71,303.75,358.86,303.91,361.79,304.1Z" transform="translate(-313.99 -300.83)"/></g><g class="cls-7"><path class="cls-9" d="M431.45,328.76c-2.92.19-3.08,0.34-3.27,3.27-0.19-2.92-.34-3.08-3.27-3.27,2.92-.19,3.08-0.34,3.27-3.27C428.38,328.42,428.53,328.57,431.45,328.76Z" transform="translate(-313.99 -300.83)"/></g><g class="cls-7"><path class="cls-10" d="M471.59,369.48c-2.92.19-3.08,0.34-3.27,3.27-0.19-2.92-.34-3.08-3.27-3.27,2.92-.19,3.08-0.34,3.27-3.27C468.52,369.14,468.67,369.29,471.59,369.48Z" transform="translate(-313.99 -300.83)"/></g><g class="cls-7"><path class="cls-11" d="M327.05,420.82c-5.85.38-6.15,0.69-6.53,6.53-0.38-5.85-.69-6.15-6.53-6.53,5.85-.38,6.15-0.69,6.53-6.53C320.9,420.13,321.21,420.44,327.05,420.82Z" transform="translate(-313.99 -300.83)"/></g><path class="cls-12" d="M378.78,380a10.55,10.55,0,0,1-8.29-2.76s0.81,8.4-1.15,10.36c0,0,10.36-2.53,10.36-5.06Z" transform="translate(-313.99 -300.83)"/><path class="cls-13" d="M367.27,357.17s-7.37,6-3.22,35h5.52S374.17,368.22,367.27,357.17Z" transform="translate(-313.99 -300.83)"/><path class="cls-14" d="M364.68,393.22a10.18,10.18,0,0,0,2.07,6,9,9,0,0,0,2.07-6" transform="translate(-313.99 -300.83)"/><path class="cls-15" d="M364.68,393.22a10.18,10.18,0,0,0,2.07,6v-6.36Z" transform="translate(-313.99 -300.83)"/><polygon class="cls-16" points="56.5 92.65 49.29 92.65 50.19 91.24 55.47 91.24 56.5 92.65"/><path class="cls-12" d="M398.92,380a10.55,10.55,0,0,0,8.29-2.76s-0.81,8.4,1.15,10.36c0,0-10.36-2.53-10.36-5.06Z" transform="translate(-313.99 -300.83)"/><path class="cls-17" d="M410.43,357.17s7.37,6,3.22,35h-5.52S403.52,368.22,410.43,357.17Z" transform="translate(-313.99 -300.83)"/><path class="cls-14" d="M408.86,393.22a10.18,10.18,0,0,0,2.07,6,9,9,0,0,0,2.07-6" transform="translate(-313.99 -300.83)"/><path class="cls-15" d="M408.86,393.22a10.18,10.18,0,0,0,2.07,6v-6.36Z" transform="translate(-313.99 -300.83)"/><path class="cls-14" d="M384.89,399a19,19,0,0,0,3.88,11.26A16.91,16.91,0,0,0,392.65,399" transform="translate(-313.99 -300.83)"/><path class="cls-15" d="M384.89,399a19,19,0,0,0,3.88,11.26V398.38Z" transform="translate(-313.99 -300.83)"/><polygon class="cls-16" points="93.22 92.65 100.43 92.65 99.53 91.24 94.25 91.24 93.22 92.65"/><path class="cls-18" d="M389,311.6h0c-0.19.28-23.86,36.1-5.06,86.08H394C412.86,347.66,389.12,311.82,389,311.6Zm0,0a0.94,0.94,0,0,1,0,.3A0.8,0.8,0,0,1,389,311.61Z" transform="translate(-313.99 -300.83)"/><polygon class="cls-16" points="81.09 98.92 68.2 98.92 69.82 96.39 79.25 96.39 81.09 98.92"/><path class="cls-19" d="M388.64,311.6S365,347.5,383.9,397.68h5S388.18,311.6,388.64,311.6Z" transform="translate(-313.99 -300.83)"/><circle class="cls-20" cx="74.65" cy="39.19" r="4.72"/><circle class="cls-21" cx="42.74" cy="114.03" r="10.88"/><circle class="cls-21" cx="46.99" cy="124.78" r="5.63"/><circle class="cls-21" cx="54.49" cy="123.28" r="5.63"/><circle class="cls-21" cx="54.49" cy="115.28" r="5.63"/><circle class="cls-21" cx="103.24" cy="131.19" r="12.54"/><circle class="cls-21" cx="98.41" cy="127.03" r="5.63"/><circle class="cls-21" cx="85.16" cy="120.48" r="5.63"/><circle class="cls-21" cx="69.74" cy="123.03" r="5.63"/><circle class="cls-21" cx="85.49" cy="129.03" r="11.13"/><circle class="cls-21" cx="96.2" cy="120.32" r="5.63"/><g class="cls-7"><path class="cls-22" d="M449.32,398.9c-7.77.57-8.23,1-8.8,8.8-0.57-7.77-1-8.23-8.8-8.8,7.77-.57,8.23-1,8.8-8.8C441.09,397.87,441.55,398.33,449.32,398.9Z" transform="translate(-313.99 -300.83)"/></g><g class="cls-7"><path class="cls-23" d="M339.51,376.82c-1.81.44-2.17,0.8-2.61,2.61-0.44-1.81-.8-2.17-2.61-2.61,1.81-.44,2.17-0.8,2.61-2.61C337.34,376,337.7,376.37,339.51,376.82Z" transform="translate(-313.99 -300.83)"/></g><g class="cls-7"><path class="cls-24" d="M322.29,354.82c-2.15.53-2.58,1-3.11,3.11-0.53-2.15-1-2.58-3.11-3.11,2.15-.53,2.58-1,3.11-3.11C319.72,353.86,320.14,354.29,322.29,354.82Z" transform="translate(-313.99 -300.83)"/></g><path class="cls-25" d="M394.1,322.31s6.13,13,6.67,34.5c0,0,1.82,23.31-7.53,40.41" transform="translate(-313.99 -300.83)"/></g></g></svg>